{"title":"Robin Hood Prince of Thieves 1991 720p BRRip H264 AAC-Rx(Phoenix","uid":5867380,"size":2471458037,"categoryP":"video","categoryS":"hd___movies","magnet":"?xt=urn:btih:be67db8fd481d97271b2f3ac931327ac9c366052&amp;dn=Robin+Hood+Prince+of+Thieves+1991+720p+BRRip+H264+AAC-Rx%28Phoenix&amp;tr=udp%3A%2F%2Ftracker.openbittorrent.com%3A80&amp;tr=udp%3A%2F%2Fopen.demonii.com%3A1337&amp;tr=udp%3A%2F%2Ftracker.coppersurfer.tk%3A6969&amp;tr=udp%3A%2F%2Fexodus.desync.com%3A6969","seeders":3,"leechers":0,"uploader":"rev-x","files":11,"time":1286263046,"description":"Robin Hood Prince of Thieves 1991 720p BRRip H264 AAC-Rx(Phoenix-RG).mp4\n      Format : MPEG-4 / AVC\n      File size : 2.30 GiB\n      Duration : 2h 35mn\n      Bit rate : 1 800 Kbps\n      Maximum bit rate : 13.6 Mbps\n      Width : 1 280 pixels\n      Height : 720 pixels\n      Display aspect ratio : 16/9\n      Frame rate mode : Constant\n      Frame rate : 23.976 fps\n      Resolution : 24 bits\n      Colorimetry : 4:2:0\n      Scan type : Progressive\n      Bits/(Pixel*Frame) : 0.081\n      Stream size : 1.95 GiB (85%)\n     \n      \nAUDIO:\n      Format : AAC / LC\n      Duration : 2h 35mn\n      Bit rate mode : Variable\n      Bit rate : 323 Kbps\n      Maximum bit rate : 413 Kbps\n      Channel(s) : 6 channels\n      Channel positions : Front: L C R, Rear: L R, LFE\n      Sampling rate : 48.0 KHz\n      Resolution : 16 bits\n      Stream size : 358 MiB (15%)\n\nSCREEN:\n &lt;a href=&quot;\nhttp://img715.imageshack.us/img715/2948/vlcsnap2010092807h02m18.jpg&quot; rel=&quot;nofollow&quot; target=&quot;_NEW&quot;&gt;\nhttp://img715.imageshack.us/img715/2948/vlcsnap2010092807h02m18.jpg&lt;/a&gt;\n &lt;a href=&quot;\nhttp://img692.imageshack.us/img692/3562/vlcsnap2010092807h02m46.jpg&quot; rel=&quot;nofollow&quot; target=&quot;_NEW&quot;&gt;\nhttp://img692.imageshack.us/img692/3562/vlcsnap2010092807h02m46.jpg&lt;/a&gt;\n &lt;a href=&quot;\nhttp://img444.imageshack.us/img444/3447/vlcsnap2010092807h01m19.jpg&quot; rel=&quot;nofollow&quot; target=&quot;_NEW&quot;&gt;\nhttp://img444.imageshack.us/img444/3447/vlcsnap2010092807h01m19.jpg&lt;/a&gt;\n &lt;a href=&quot;\nhttp://img186.imageshack.us/img186/7457/vlcsnap2010092807h05m59.jpg&quot; rel=&quot;nofollow&quot; target=&quot;_NEW&quot;&gt;\nhttp://img186.imageshack.us/img186/7457/vlcsnap2010092807h05m59.jpg&lt;/a&gt;\n &lt;a href=&quot;\nhttp://img827.imageshack.us/img827/2763/vlcsnap2010092807h01m36.jpg&quot; rel=&quot;nofollow&quot; target=&quot;_NEW&quot;&gt;\nhttp://img827.imageshack.us/img827/2763/vlcsnap2010092807h01m36.jpg&lt;/a&gt;","torrent":{"xt":"urn:btih:be67db8fd481d97271b2f3ac931327ac9c366052","amp;dn":"Robin+Hood+Prince+of+Thieves+1991+720p+BRRip+H264+AAC-Rx%28Phoenix","amp;tr":["udp%3A%2F%2Ftracker.openbittorrent.com%3A80","udp%3A%2F%2Fopen.demonii.com%3A1337","udp%3A%2F%2Ftracker.coppersurfer.tk%3A6969","udp%3A%2F%2Fexodus.desync.com%3A6969"],"infoHash":"be67db8fd481d97271b2f3ac931327ac9c366052","infoHashBuffer":{"type":"Buffer","data":[190,103,219,143,212,129,217,114,113,178,243,172,147,19,39,172,156,54,96,82]},"announce":[],"urlList":[]}}